# xmcd CD database file
#
# Track frame offsets:
#	150
#	30172
#	57906
#	82153
#	109082
#	135867
#	159358
#	189414
#	221150
#	247024
#
# Disc length: 3676 seconds
#
# Revision: 0
# Processed by: cddbd v1.5.2PL0 Copyright (c) Steve Scherf et al.
# Submitted via: CDex 1.51
#
DISCID=7f0e5a0a
DTITLE=Rhoda Scott and Friends - Live Au Jazz Club Etoile - 17, 18 and 19 Décembre 2015
DYEAR=2015
DGENRE=Jazz
TTITLE0=Groove Merchant (Live)
TTITLE1=Moon Dance (Live)
TTITLE2=My One And Only One (Live)
TTITLE3=Nova (Live)
TTITLE4=On A Clear Day (Live)
TTITLE5=One Mint Julep (Live)
TTITLE6=One Note SAmba (Live)
TTITLE7=Stolen Sweets (Live)
TTITLE8=Sugar (Live)
TTITLE9=Sunny (Live)
EXTD=YEAR: 2015
EXTT0=
EXTT1=
EXTT2=
EXTT3=
EXTT4=
EXTT5=
EXTT6=
EXTT7=
EXTT8=
EXTT9=
PLAYORDER=
